<svg width="65" height="68" viewBox="0 0 65 68" fill="none" xmlns="http://www.w3.org/2000/svg">
<path d="M6.13844 13.2812H12.7197C18.1113 13.2812 21.1994 15.9897 21.1994 19.8878C21.1994 23.6847 18.4909 25.6084 13.4284 25.6084H11.9856C11.5806 25.6084 11.4794 25.6591 11.4794 26.1147V26.7475C11.4794 29.7597 13.0741 29.0509 13.0741 30.2659C13.0741 30.7975 12.7197 30.9747 11.6819 30.9747H7.63188C6.64469 30.9747 6.23969 30.7975 6.23969 30.2659C6.23969 29.0509 7.885 29.7597 7.885 26.7475V16.7997C7.885 15.3822 7.25219 14.8 6.13844 14.8C5.07531 14.8 4.24 15.3569 4.24 16.3694C4.24 17.5591 5.63219 17.9134 5.63219 19.0272C5.6575 20.2169 4.59438 20.7484 3.73375 20.7484C1.93656 20.7484 0.949375 19.2803 0.949375 17.4325C0.949375 15.1291 2.94906 13.2812 6.13844 13.2812ZM13.2513 24.0644C15.8837 24.0644 17.5291 22.8241 17.5291 20.2928C17.5291 16.825 15.3016 14.7747 12.5172 14.7747C11.6566 14.7747 11.4794 14.9266 11.4794 15.4581V23.2544C11.4794 23.8366 11.935 24.0644 13.2513 24.0644ZM35.2423 29.0509C35.5207 29.0509 35.7232 29.1775 35.7232 29.4812C35.7232 30.3419 34.331 31.2025 33.116 31.2025C32.0023 31.2025 31.3442 30.595 30.9645 29.3294C29.7748 30.6456 28.0535 31.2278 26.5348 31.2278C23.7251 31.2278 21.9026 29.6078 21.9026 27.5069C21.9026 25.0769 24.0288 23.3303 27.6232 23.3303C28.2813 23.3303 28.7876 23.4062 29.6482 23.5328C29.1926 21.9381 28.6863 20.6725 26.7879 20.6725C25.6488 20.6725 24.611 21.1534 23.6998 21.6597C23.2188 21.9634 22.6873 21.5837 23.067 20.9509C23.6998 19.8878 25.6235 18.5969 28.0535 18.5969C31.2935 18.5969 32.2554 20.8244 32.8123 22.9253L34.0526 27.6841C34.331 28.7219 34.6854 29.0762 35.2423 29.0509ZM27.9017 29.4559C29.3192 29.4559 30.7367 28.4687 30.5342 27.4309C30.4582 27.0006 30.2304 26.3678 30.0026 25.4819C29.8254 24.8997 28.8382 24.6466 28.0282 24.6466C26.231 24.6466 25.1679 25.5578 25.1679 26.95C25.1932 28.3928 26.2563 29.4559 27.9017 29.4559ZM53.3223 18.8247H55.1195C55.8283 18.8247 56.2586 18.9766 56.2586 19.4828C56.2586 20.4194 55.2461 20.065 54.3601 22.1153L50.867 30.2406C50.7151 30.5697 50.5379 30.8481 49.5761 31.0253C48.6901 31.1772 48.3611 31.0759 48.2092 30.6456L45.5008 23.3556L42.9189 30.2406C42.7923 30.5697 42.4126 30.8481 41.7039 31.0253C40.742 31.2531 40.4129 31.0759 40.2358 30.6456L36.8186 22.1406C36.0086 20.065 34.9708 20.4194 34.9708 19.4575C34.9708 18.9512 35.4011 18.8247 36.0845 18.8247H39.9573C40.6661 18.8247 41.1217 18.9766 41.1217 19.4828C41.1217 20.4194 39.6536 20.065 40.4889 22.1406L42.4886 27.1019L45.3236 19.5587C45.4501 19.2297 45.602 18.9766 46.2601 18.8247C47.1208 18.6222 47.4245 18.7994 47.5764 19.2297L50.5886 27.1272L52.7401 22.1153C53.6008 20.065 52.2339 20.4194 52.2339 19.4575C52.2339 18.9512 52.6389 18.8247 53.3223 18.8247Z" fill="#0D4736"/>
<path d="M15.8381 32.582H21.2549C26.6465 32.582 29.7346 35.2905 29.7346 39.1886C29.7346 42.9855 27.0515 44.9092 21.989 44.9092H20.1665C19.7615 44.9092 19.6603 44.9598 19.6603 45.4155V46.0736C19.6603 49.0858 21.2549 48.377 21.2549 49.592C21.2549 50.1236 20.9006 50.3008 19.8628 50.3008H15.8381C14.8256 50.3008 14.4206 50.1236 14.4206 49.592C14.4206 48.377 16.0912 49.0858 16.0912 46.0736V36.8852C16.0912 33.5945 14.4206 34.607 14.4206 33.2908C14.4206 32.7339 14.8256 32.582 15.8381 32.582ZM21.8118 43.3652C24.4443 43.3652 26.0896 42.1248 26.0896 39.5936C26.0896 36.1258 23.8368 34.0755 21.2043 34.0755C19.7868 34.0755 19.6603 34.2273 19.6603 34.7589V42.5552C19.6603 43.1373 20.0653 43.3652 21.8118 43.3652ZM33.2106 36.5055C32.2487 36.4802 31.6665 35.7967 31.6918 34.9614C31.7171 33.797 33.0587 32.5061 34.3496 32.5567C35.2609 32.582 35.9443 33.2908 35.9443 34.1514C35.8937 35.3917 34.5268 36.5308 33.2106 36.5055ZM32.3499 46.7823V42.1502C32.3499 40.4036 31.1349 40.5808 31.1349 39.8214C31.1349 39.467 31.3121 39.2898 31.9196 39.0114C32.9827 38.5305 34.8052 37.923 35.2102 37.923C35.6152 37.8977 35.7924 38.1508 35.7924 38.6823L35.7671 42.1502V46.7823C35.7671 49.1364 37.0074 48.5542 37.0074 49.668C37.0074 50.1742 36.5771 50.3008 35.8937 50.3008H32.274C31.5399 50.3008 31.1096 50.1489 31.1096 49.6427C31.1096 48.5542 32.3499 49.1364 32.3499 46.7823ZM44.7475 50.5539C40.8747 50.5539 38.6472 47.7695 38.6472 44.6308C38.6472 40.758 41.6088 37.8977 45.2538 37.8977C48.3925 37.8977 50.3669 39.9227 50.3669 42.0995C50.3669 43.2639 49.5822 43.8461 48.7469 43.8461C47.6838 43.8461 47.2788 43.1373 47.051 42.2514C46.5953 40.6567 45.8106 39.543 44.4691 39.5177C42.8744 39.5177 41.9378 40.8845 41.9378 42.8842C41.9378 45.9977 43.6338 48.0986 46.2663 48.0986C47.8103 48.0986 48.7469 47.3898 49.6328 46.5798C50.1644 46.0989 50.6706 46.4786 50.4175 47.238C49.9366 48.6302 48.1141 50.5539 44.7475 50.5539ZM54.1195 50.5539C53.6638 50.5539 53.4867 50.3514 53.1576 49.5414C52.7273 48.5036 52.4488 47.7948 52.221 46.9342C52.0945 46.3773 52.2463 46.0989 52.5501 45.947C52.9045 45.7698 53.3095 46.0483 53.8663 46.5545C55.5117 48.1745 56.9292 49.1111 58.4226 49.1111C59.2832 49.1111 59.8907 48.6302 59.8907 47.8961C59.8907 46.9848 58.5745 46.3014 56.3723 45.3648C54.4232 44.5295 52.5754 43.5423 52.5754 41.4414C52.5754 39.0114 54.8282 37.8977 56.8026 37.8977C58.2201 37.8977 59.0807 38.2267 59.8148 38.252C60.3463 38.252 60.4223 37.8977 60.8779 37.8977C61.2829 37.8977 61.4601 38.1761 61.8651 38.8848C62.1942 39.5177 62.346 39.872 62.5738 40.4036C62.827 41.087 62.7257 41.4414 62.3967 41.5933C61.9157 41.8464 61.4854 41.3908 60.6754 40.8086C59.6882 40.0998 58.3973 39.3658 57.2835 39.3658C56.2457 39.3658 55.7395 39.9227 55.7395 40.5302C55.7395 41.4161 56.8026 41.9477 58.8782 42.8336C61.5613 44.0233 63.2826 45.0358 63.2826 46.8583C63.2826 49.0605 61.1817 50.5539 58.5238 50.5539C56.5242 50.5539 55.6382 50.0477 55.1067 50.0477C54.727 50.0477 54.6004 50.5539 54.1195 50.5539Z" fill="#0D4736"/>
</svg>
