<svg width="28" height="28" viewBox="0 0 28 28" fill="none" xmlns="http://www.w3.org/2000/svg">
<path d="M17.2667 24.5333L25.2 22.0667C25.0889 21.8667 24.9278 21.6944 24.7167 21.55C24.5056 21.4056 24.2667 21.3333 24 21.3333H17.2667C16.6667 21.3333 16.1889 21.3111 15.8333 21.2667C15.4778 21.2222 15.1111 21.1333 14.7333 21L12.8333 20.3667C12.4778 20.2556 12.2222 20.0333 12.0667 19.7C11.9111 19.3667 11.8889 19.0222 12 18.6667C12.1111 18.3111 12.3278 18.05 12.65 17.8833C12.9722 17.7167 13.3111 17.6889 13.6667 17.8L15.0667 18.2667C15.4444 18.3778 15.8722 18.4667 16.35 18.5333C16.8278 18.6 17.4778 18.6444 18.3 18.6667H18.6667C18.6667 18.4222 18.5944 18.1889 18.45 17.9667C18.3056 17.7444 18.1333 17.6 17.9333 17.5333L10.1333 14.6667H8V22L17.2667 24.5333ZM16.5667 27.1333L8 24.7333C7.82222 25.3111 7.47222 25.7778 6.95 26.1333C6.42778 26.4889 5.88889 26.6667 5.33333 26.6667H2.66667C1.93333 26.6667 1.30556 26.4056 0.783333 25.8833C0.261111 25.3611 0 24.7333 0 24V14.6667C0 13.9333 0.261111 13.3056 0.783333 12.7833C1.30556 12.2611 1.93333 12 2.66667 12H10.1333C10.2889 12 10.4444 12.0167 10.6 12.05C10.7556 12.0833 10.9 12.1222 11.0333 12.1667L18.8667 15.0667C19.6 15.3333 20.1944 15.8 20.65 16.4667C21.1056 17.1333 21.3333 17.8667 21.3333 18.6667H24C25.1111 18.6667 26.0556 19.0333 26.8333 19.7667C27.6111 20.5 28 21.4667 28 22.6667C28 23.1556 27.8722 23.5389 27.6167 23.8167C27.3611 24.0944 26.9667 24.3222 26.4333 24.5L18.1 27.1C17.8556 27.1889 17.6 27.2333 17.3333 27.2333C17.0667 27.2333 16.8111 27.2 16.5667 27.1333ZM2.66667 24H5.33333V14.6667H2.66667V24ZM20 13.6C19.6667 13.6 19.3389 13.5389 19.0167 13.4167C18.6944 13.2944 18.4 13.1111 18.1333 12.8667L14.4667 9.26667C13.7778 8.6 13.1944 7.86111 12.7167 7.05C12.2389 6.23889 12 5.35556 12 4.4C12 3.17778 12.4278 2.13889 13.2833 1.28333C14.1389 0.427778 15.1778 0 16.4 0C17.1111 0 17.7778 0.15 18.4 0.45C19.0222 0.75 19.5556 1.15556 20 1.66667C20.4444 1.15556 20.9778 0.75 21.6 0.45C22.2222 0.15 22.8889 0 23.6 0C24.8222 0 25.8611 0.427778 26.7167 1.28333C27.5722 2.13889 28 3.17778 28 4.4C28 5.35556 27.7667 6.23889 27.3 7.05C26.8333 7.86111 26.2556 8.6 25.5667 9.26667L21.8667 12.8667C21.6 13.1111 21.3056 13.2944 20.9833 13.4167C20.6611 13.5389 20.3333 13.6 20 13.6ZM20 10.9333L23.6333 7.36667C24.0556 6.94444 24.4444 6.49444 24.8 6.01667C25.1556 5.53889 25.3333 5 25.3333 4.4C25.3333 3.91111 25.1667 3.5 24.8333 3.16667C24.5 2.83333 24.0889 2.66667 23.6 2.66667C23.2889 2.66667 22.9944 2.72778 22.7167 2.85C22.4389 2.97222 22.2 3.15556 22 3.4L21.0333 4.56667C20.7667 4.87778 20.4222 5.03333 20 5.03333C19.5778 5.03333 19.2333 4.87778 18.9667 4.56667L18 3.4C17.8 3.15556 17.5611 2.97222 17.2833 2.85C17.0056 2.72778 16.7111 2.66667 16.4 2.66667C15.9111 2.66667 15.5 2.83333 15.1667 3.16667C14.8333 3.5 14.6667 3.91111 14.6667 4.4C14.6667 5 14.8444 5.53889 15.2 6.01667C15.5556 6.49444 15.9444 6.94444 16.3667 7.36667L20 10.9333Z" fill="#093327"/>
</svg>
