<svg width="26" height="20" viewBox="0 0 26 20" fill="none" xmlns="http://www.w3.org/2000/svg">
<path fill-rule="evenodd" clip-rule="evenodd" d="M13.5082 11.1446C13.8542 11.0634 14.1845 10.898 14.4666 10.6484L17.6417 7.83932C19.1589 6.4971 18.205 4 16.1751 4H9.82487C7.79503 4 6.84111 6.4971 8.35821 7.83932L11.5334 10.6484C11.8148 10.8974 12.1442 11.0626 12.4894 11.1441V11.2676C12.4894 13.3221 10.8178 14.9859 8.75412 14.9859C6.69041 14.9859 5.01887 13.3221 5.01887 11.2676H4C4 13.882 6.12757 16 8.75412 16C10.6102 16 12.2169 14.9424 13 13.3995C13.7831 14.9424 15.3899 16 17.2459 16C19.8724 16 22 13.882 22 11.2676H20.9811C20.9811 13.3221 19.3096 14.9859 17.2459 14.9859C15.1822 14.9859 13.5106 13.3221 13.5106 11.2676H13.5082V11.1446Z" fill="#839683"/>
</svg>
