<svg width="25" height="24" viewBox="0 0 25 24" fill="none" xmlns="http://www.w3.org/2000/svg">
<path d="M6.08333 11.583C5.5 11.583 5.00694 11.3816 4.60417 10.9788C4.20139 10.5761 4 10.083 4 9.49967C4 8.91634 4.20139 8.42329 4.60417 8.02051C5.00694 7.61773 5.5 7.41634 6.08333 7.41634C6.66667 7.41634 7.15972 7.61773 7.5625 8.02051C7.96528 8.42329 8.16667 8.91634 8.16667 9.49967C8.16667 10.083 7.96528 10.5761 7.5625 10.9788C7.15972 11.3816 6.66667 11.583 6.08333 11.583ZM9.83333 8.24967C9.25 8.24967 8.75694 8.04829 8.35417 7.64551C7.95139 7.24273 7.75 6.74967 7.75 6.16634C7.75 5.58301 7.95139 5.08995 8.35417 4.68717C8.75694 4.2844 9.25 4.08301 9.83333 4.08301C10.4167 4.08301 10.9097 4.2844 11.3125 4.68717C11.7153 5.08995 11.9167 5.58301 11.9167 6.16634C11.9167 6.74967 11.7153 7.24273 11.3125 7.64551C10.9097 8.04829 10.4167 8.24967 9.83333 8.24967ZM14.8333 8.24967C14.25 8.24967 13.7569 8.04829 13.3542 7.64551C12.9514 7.24273 12.75 6.74967 12.75 6.16634C12.75 5.58301 12.9514 5.08995 13.3542 4.68717C13.7569 4.2844 14.25 4.08301 14.8333 4.08301C15.4167 4.08301 15.9097 4.2844 16.3125 4.68717C16.7153 5.08995 16.9167 5.58301 16.9167 6.16634C16.9167 6.74967 16.7153 7.24273 16.3125 7.64551C15.9097 8.04829 15.4167 8.24967 14.8333 8.24967ZM18.5833 11.583C18 11.583 17.5069 11.3816 17.1042 10.9788C16.7014 10.5761 16.5 10.083 16.5 9.49967C16.5 8.91634 16.7014 8.42329 17.1042 8.02051C17.5069 7.61773 18 7.41634 18.5833 7.41634C19.1667 7.41634 19.6597 7.61773 20.0625 8.02051C20.4653 8.42329 20.6667 8.91634 20.6667 9.49967C20.6667 10.083 20.4653 10.5761 20.0625 10.9788C19.6597 11.3816 19.1667 11.583 18.5833 11.583ZM7.875 19.9163C7.25 19.9163 6.72569 19.6768 6.30208 19.1976C5.87847 18.7184 5.66667 18.1525 5.66667 17.4997C5.66667 16.7775 5.91319 16.1455 6.40625 15.6038C6.89931 15.0622 7.38889 14.5275 7.875 13.9997C8.27778 13.5691 8.625 13.1004 8.91667 12.5934C9.20833 12.0865 9.55556 11.6108 9.95833 11.1663C10.2639 10.8052 10.6181 10.5066 11.0208 10.2705C11.4236 10.0344 11.8611 9.91634 12.3333 9.91634C12.8056 9.91634 13.2431 10.0275 13.6458 10.2497C14.0486 10.4719 14.4028 10.7636 14.7083 11.1247C15.0972 11.5691 15.441 12.0483 15.7396 12.5622C16.0382 13.0761 16.3889 13.5552 16.7917 13.9997C17.2778 14.5275 17.7674 15.0622 18.2604 15.6038C18.7535 16.1455 19 16.7775 19 17.4997C19 18.1525 18.7882 18.7184 18.3646 19.1976C17.941 19.6768 17.4167 19.9163 16.7917 19.9163C16.0417 19.9163 15.2986 19.8538 14.5625 19.7288C13.8264 19.6038 13.0833 19.5413 12.3333 19.5413C11.5833 19.5413 10.8403 19.6038 10.1042 19.7288C9.36806 19.8538 8.625 19.9163 7.875 19.9163Z" fill="#839683"/>
</svg>
