<svg width="24" height="23" viewBox="0 0 24 23" fill="none" xmlns="http://www.w3.org/2000/svg">
<path d="M6.896 5.46634L10.1627 1.23717C10.396 0.926063 10.6731 0.697591 10.9939 0.551758C11.3147 0.405924 11.6502 0.333008 12.0002 0.333008C12.3502 0.333008 12.6856 0.405924 13.0064 0.551758C13.3272 0.697591 13.6043 0.926063 13.8377 1.23717L17.1043 5.46634L22.0627 7.12884C22.5682 7.2844 22.9668 7.5712 23.2585 7.98926C23.5502 8.40731 23.696 8.86912 23.696 9.37467C23.696 9.60801 23.662 9.84134 23.5939 10.0747C23.5259 10.308 23.4141 10.5316 23.2585 10.7455L20.0502 15.2955L20.1668 20.0788C20.1863 20.7594 19.9627 21.333 19.496 21.7997C19.0293 22.2663 18.4849 22.4997 17.8627 22.4997C17.8238 22.4997 17.6099 22.4705 17.221 22.4122L12.0002 20.9538L6.77933 22.4122C6.68211 22.4511 6.57516 22.4754 6.4585 22.4851C6.34183 22.4948 6.23488 22.4997 6.13766 22.4997C5.51544 22.4997 4.971 22.2663 4.50433 21.7997C4.03766 21.333 3.81405 20.7594 3.8335 20.0788L3.95016 15.2663L0.770996 10.7455C0.615441 10.5316 0.503635 10.308 0.435579 10.0747C0.367524 9.84134 0.333496 9.60801 0.333496 9.37467C0.333496 8.88856 0.474468 8.43648 0.756413 8.01842C1.03836 7.60037 1.43211 7.30384 1.93766 7.12884L6.896 5.46634ZM8.32516 7.47884L2.66683 9.34551L6.2835 14.5663L6.16683 20.1372L12.0002 18.533L17.8335 20.1663L17.7168 14.5663L21.3335 9.40384L15.6752 7.47884L12.0002 2.66634L8.32516 7.47884Z" fill="#093327"/>
</svg>
